<?xml version="1.0" encoding="UTF-8"?>
<svg version="1.1" xmlns="http://www.w3.org/2000/svg" width="512" height="512">
<path d="M0 0 C3.87448715 2.19895363 6.62693933 4.79909242 9.73982829 7.94853473 C10.36717408 8.5712206 10.99451987 9.19390647 11.64087614 9.83546162 C13.74600713 11.92862004 15.84027711 14.0323172 17.93477172 16.13611484 C19.45510549 17.65227671 20.97609089 19.16778539 22.49767208 20.68269539 C26.68089256 24.85142388 30.85467091 29.02949613 35.02696568 33.2091558 C39.526714 37.71362416 44.03505545 42.20947774 48.54228514 46.70645785 C56.86165256 55.00960483 65.17409672 63.31964078 73.48289022 71.63336792 C81.15872939 79.3137627 88.83713834 86.991576 96.51815528 94.66679263 C97.54810908 95.69598957 98.57806244 96.72518695 99.60801536 97.75438477 C101.16002557 99.3052498 102.71203813 100.85611248 104.26405784 102.40696801 C118.69473927 116.82694314 133.1224269 131.24990818 147.54380625 145.67918658 C148.08752708 146.22320458 148.6312479 146.76722258 149.19144512 147.32772597 C153.60694534 151.74567518 158.02236426 156.16370566 162.43777716 160.58174214 C179.66303909 177.81710766 196.89750753 195.04321795 214.13943785 212.26190829 C233.50747759 231.60388458 252.86890073 250.95244812 272.22035789 270.31101608 C274.28313722 272.37451148 276.34593739 274.43798603 278.40874976 276.50144839 C278.91666786 277.00953631 279.42458597 277.51762422 279.94789553 278.04110874 C287.61992628 285.71544383 295.29708798 293.38462077 302.97683066 301.05123782 C311.70895609 309.76846563 320.43384467 318.49285437 329.14978709 327.22626516 C333.59873895 331.68375436 338.0508708 336.13794158 342.51171035 340.58353686 C346.59304299 344.65109426 350.66507478 348.72772521 354.72980545 352.8118712 C356.20396899 354.28981708 357.68153664 355.76437676 359.16277643 357.23523054 C361.17225327 359.23161326 363.16906542 361.23986729 365.16315287 363.2516048 C365.74395587 363.82275728 366.32475887 364.39390976 366.92316195 364.9823699 C371.4110306 369.55244574 373.87419818 373.79901089 374.70022887 380.28925204 C373.97536063 386.19175056 371.99006121 390.28510178 367.57522887 394.28925204 C361.91927505 396.95715479 357.57396282 397.54044914 351.54519957 395.74400973 C346.76915683 393.89555357 343.72972959 390.99240861 340.20413512 387.36078525 C339.54947768 386.70685794 338.89482024 386.05293063 338.2203247 385.37918735 C336.07654697 383.23194839 333.95099099 381.06759638 331.82522887 378.90253329 C330.33560274 377.40357394 328.84486301 375.90572051 327.3530609 374.40892673 C323.44244573 370.4792824 319.54708365 366.53485306 315.65475768 362.58710361 C311.67515017 358.55621642 307.68123136 354.53956443 303.68851012 350.52167392 C295.86588169 342.64552975 288.05930083 334.75368437 280.26272887 326.85175204 C275.31955298 328.46608089 275.31955298 328.46608089 270.66116637 330.73456454 C270.01679625 331.09316562 269.37242614 331.45176669 268.70852965 331.82123446 C268.02516539 332.20255527 267.34180114 332.58387607 266.63772887 332.97675204 C247.83843269 343.16090843 227.40415674 349.977506 206.57522887 354.60175204 C205.68601744 354.80050937 204.79680602 354.99926669 203.88064879 355.20404696 C189.70117741 358.20402037 175.71289912 359.26220315 161.26272887 359.22675204 C160.45901854 359.22654056 159.65530822 359.22632907 158.82724303 359.22611117 C144.98273805 359.18996588 131.78117382 357.98665058 118.26272887 354.85175204 C117.44288512 354.6698331 116.62304137 354.48791415 115.77835387 354.30048251 C69.90731743 343.95175473 26.51548403 319.11558121 -8.77242738 288.41425204 C-11.6700701 285.90983357 -14.62655885 283.50004467 -17.61227113 281.10175204 C-21.32911287 278.07879248 -24.76268776 274.94735947 -28.08883363 271.50409579 C-29.7573537 269.83162188 -31.4965202 268.31478712 -33.29977113 266.78925204 C-41.7912948 259.45867888 -49.86663471 251.32466029 -57.10836488 242.75800204 C-59.05178578 240.48368694 -61.08391847 238.30058374 -63.11227113 236.10175204 C-77.8442052 219.80043668 -77.8442052 219.80043668 -78.04977113 211.10175204 C-78.08715394 210.07565829 -78.12453676 209.04956454 -78.16305238 207.99237704 C-77.31471091 201.73488583 -72.54966077 197.25582265 -68.54977113 192.60175204 C-67.82032289 191.74770785 -67.82032289 191.74770785 -67.07613832 190.87641025 C-62.71513694 185.78928929 -58.27570763 180.78155144 -53.73727113 175.85175204 C-53.16927797 175.23332431 -52.6012848 174.61489657 -52.01607972 173.97772861 C-50.07438325 171.86816934 -48.12555392 169.76540968 -46.17477113 167.66425204 C-45.56149965 166.99869296 -44.94822816 166.33313388 -44.31637269 165.64740634 C-40.62110012 161.68881853 -36.77944026 158.04780009 -32.66817933 154.52435946 C-30.30140173 152.47418961 -28.03708418 150.33045 -25.76827699 148.17328525 C-18.95882445 141.71118204 -11.86434496 135.80578197 -4.39596254 130.12518954 C-2.85196756 128.93980865 -1.33069648 127.72498998 0.18851012 126.50800204 C14.96078548 114.76844546 31.04706019 104.47980532 47.26272887 94.85175204 C43.35579554 90.16714931 39.28868247 85.74999178 34.9377777 81.47675204 C34.03660971 80.58500278 34.03660971 80.58500278 33.11723632 79.67523837 C31.82516874 78.39691839 30.53202518 77.11968521 29.2378971 75.84345126 C27.18737367 73.81978986 25.14144523 71.79158947 23.09688109 69.76190829 C17.28797544 63.99554261 11.47639053 58.23196797 5.6487152 52.48456454 C2.07347607 48.95791575 -1.49186433 45.42151825 -5.05098611 41.87860751 C-6.40409036 40.53537662 -7.76083641 39.19580366 -9.12132531 37.86005282 C-11.02375775 35.9914732 -12.91331114 34.11070517 -14.80050355 32.22675204 C-15.36003724 31.6831705 -15.91957093 31.13958896 -16.49606019 30.57953525 C-20.95883721 26.08177702 -23.35832981 21.82914816 -24.17477113 15.41425204 C-23.51945114 10.078075 -21.99508973 5.96176762 -18.00680238 2.23456454 C-12.27793 -1.81338121 -6.51885832 -2.73457228 0 0 Z M61.95022887 124.85175204 C60.94218199 125.44899081 59.93413512 126.04622958 58.89554137 126.6615665 C51.85989473 130.85288276 44.96938163 135.14764912 38.26272887 139.85175204 C37.7280902 140.22332431 37.19345153 140.59489657 36.64261168 140.97772861 C8.46614243 160.5906039 -17.67655409 183.50145113 -39.73727113 209.85175204 C-35.34432988 219.78013654 -24.73787693 228.03750547 -17.12691957 235.64740634 C-15.36652061 237.40999728 -13.61430731 239.18046243 -11.86227113 240.95136142 C-5.12671316 247.71999281 1.7715305 253.91914085 9.26272887 259.85175204 C10.36482775 260.78621239 11.4611611 261.72758036 12.54788512 262.67987704 C55.19229836 299.86628522 112.91156431 330.00251896 170.85476989 326.45526767 C200.87201432 324.19364481 227.54088095 315.35760433 254.26272887 301.85175204 C252.83014115 298.57978752 251.07447571 296.41971248 248.54739684 293.90936923 C247.78675933 293.14888278 247.02612181 292.38839633 246.24243468 291.60486484 C245.42155364 290.79430636 244.6006726 289.98374789 243.75491637 289.14862704 C242.49398665 287.89194217 242.49398665 287.89194217 241.20758361 286.60986972 C238.52228886 283.93576773 235.83012232 281.2687048 233.13772887 278.60175204 C231.31565732 276.78971143 229.4940371 274.97721686 227.67288512 273.16425204 C223.20805635 268.72147168 218.73756604 264.28445039 214.26272887 259.85175204 C213.786239 260.2623537 213.30974913 260.67295535 212.81882018 261.09599948 C212.19155028 261.63535632 211.56428038 262.17471316 210.91800231 262.73041415 C209.98670501 263.53194163 209.98670501 263.53194163 209.03659362 264.34966159 C193.412741 277.57977957 174.59950514 283.21437466 154.26272887 281.85175204 C135.4928811 279.458408 118.5516446 271.31230368 106.35647887 256.54315829 C94.14808722 239.81016535 88.9652552 220.82049459 91.75882262 200.18768954 C94.82089708 184.58321971 101.42115818 170.63768678 113.26272887 159.85175204 C108.83313738 154.55120505 104.16451849 149.60677964 99.27444762 144.73065829 C98.53064345 143.9858974 97.78683928 143.2411365 97.02049559 142.4738071 C95.46111061 140.91374585 93.90047909 139.35492968 92.3386566 137.79730868 C89.93652586 135.40057985 87.53983636 132.99850143 85.14358824 130.59589267 C83.62502898 129.07799339 82.10615998 127.5604039 80.58694762 126.04315829 C79.86722274 125.32140918 79.14749785 124.59966006 78.40596312 123.85603976 C77.41406729 122.86887218 77.41406729 122.86887218 76.40213317 121.86176181 C75.81844466 121.27886889 75.23475615 120.69597598 74.63338012 120.09541965 C71.26369246 117.03791586 65.18385158 122.93585156 61.95022887 124.85175204 Z M134.77444762 184.28534579 C126.4773173 193.39975233 123.8611311 202.21547088 123.98538512 214.43378329 C124.86174975 225.23405167 130.36301901 233.36484736 138.07522887 240.60175204 C147.32605895 248.37884144 157.50125922 249.7391743 169.26272887 248.85175204 C177.571144 247.00894767 185.46224278 243.05248117 190.26272887 235.85175204 C183.37258434 228.9384871 176.47977846 222.02788809 169.58351535 215.12072635 C166.38175406 211.91373557 163.18093405 208.70581672 159.98221129 205.49579501 C156.89806466 202.40082184 153.8115163 199.30826313 150.72325248 196.21739841 C149.54256678 195.03485803 148.36276481 193.85143466 147.18384284 192.66713595 C145.53868808 191.01477387 143.89048317 189.36551527 142.24148864 187.71698642 C141.74949477 187.22139728 141.2575009 186.72580813 140.75059813 186.21520114 C137.97237942 182.71062415 137.97237942 182.71062415 134.77444762 184.28534579 Z " fill="#000000" transform="translate(93.73727113008499,45.148247957229614)"/>
<path d="M0 0 C1.21333763 -0.01475876 1.21333763 -0.01475876 2.45118713 -0.02981567 C42.51093091 -0.4162972 79.75784215 7.3081935 115.3984375 26.21289062 C117.39090914 27.26103452 119.39805357 28.27527234 121.41015625 29.28515625 C132.92170914 35.12800848 143.67016039 41.99732589 154.34765625 49.23828125 C155.0039502 49.68316895 155.66024414 50.12805664 156.33642578 50.58642578 C166.10508334 57.26502442 175.26756618 64.6593351 184.34765625 72.23828125 C184.94578125 72.73585938 185.54390625 73.2334375 186.16015625 73.74609375 C201.79367002 86.79728605 217.38743597 100.70193935 230.61328125 116.2265625 C232.59880046 118.52958591 234.66138728 120.7528706 236.72265625 122.98828125 C251.45459032 139.28959661 251.45459032 139.28959661 251.66015625 147.98828125 C251.69753906 149.014375 251.73492187 150.04046875 251.7734375 151.09765625 C250.92508958 157.355195 246.16000831 161.83413893 242.16015625 166.48828125 C241.67458252 167.05691895 241.18900879 167.62555664 240.6887207 168.21142578 C236.3275043 173.29963072 231.87899372 178.30083335 227.34765625 183.23828125 C226.85458984 183.78178223 226.36152344 184.3252832 225.85351562 184.88525391 C214.53870353 197.34591306 202.4788989 208.87720541 189.78515625 219.92578125 C189.23794922 220.40684326 188.69074219 220.88790527 188.12695312 221.38354492 C181.81441613 226.78918592 176.47713181 229.97219805 167.93359375 229.62109375 C162.67005693 228.84189948 160.14342351 226.29213518 157.03515625 222.17578125 C154.43876109 217.65613042 153.92281413 214.42135506 154.34765625 209.23828125 C156.6760534 201.88544815 161.61744021 198.09971577 167.47265625 193.4375 C177.13645434 185.62804913 185.95554284 176.79507264 194.71435547 168.00195312 C196.37091511 166.3399459 198.03287403 164.68346855 199.6953125 163.02734375 C200.76724849 161.95474819 201.8388749 160.88184315 202.91015625 159.80859375 C203.64298828 159.07879807 203.64298828 159.07879807 204.390625 158.33425903 C207.25671309 155.44859418 209.86365505 152.45798516 212.34765625 149.23828125 C207.99439045 139.38549205 197.72833062 131.43255827 190.16455078 123.86987305 C188.4765777 122.17970779 186.79679901 120.48167291 185.1171875 118.78320312 C178.50192814 112.13410566 171.70031713 106.07255689 164.34765625 100.23828125 C163.24564784 99.30371422 162.14931078 98.36235391 161.0625 97.41015625 C119.24689123 60.9464749 61.34758638 29.75092425 4.26953125 33.59375 C-3.09503958 34.1715539 -10.45295996 34.83426109 -17.78515625 35.73828125 C-23.5917584 36.3849562 -27.96839683 36.68940022 -33.06640625 33.52734375 C-37.0515026 30.28822603 -38.76860663 26.83347672 -39.58984375 21.86328125 C-40.01227085 15.59023885 -38.29653171 11.23796931 -34.33984375 6.42578125 C-25.61547209 -0.06829991 -10.59779867 0.10654325 0 0 Z " fill="#000000" transform="translate(244.65234375,107.76171875)"/>
</svg>
