<?xml version="1.0" standalone="no"?>
<!DOCTYPE svg PUBLIC "-//W3C//DTD SVG 20010904//EN"
 "http://www.w3.org/TR/2001/REC-SVG-20010904/DTD/svg10.dtd">
<svg version="1.0" xmlns="http://www.w3.org/2000/svg"
 width="512.000000pt" height="512.000000pt" viewBox="0 0 512.000000 512.000000"
 preserveAspectRatio="xMidYMid meet">

<g transform="translate(0.000000,512.000000) scale(0.100000,-0.100000)"
fill="#000000" stroke="none">
<path d="M2421 4986 c-69 -68 -151 -139 -181 -156 -113 -67 -261 -87 -378 -54
-32 9 -117 39 -190 66 -84 31 -139 47 -153 43 -24 -8 -37 -36 -84 -185 -45
-143 -78 -201 -153 -272 -102 -98 -195 -132 -383 -142 -216 -12 -238 -16 -254
-40 -13 -19 -12 -37 5 -146 29 -183 25 -265 -17 -365 -28 -66 -94 -154 -147
-196 -49 -39 -75 -53 -268 -142 -120 -56 -127 -71 -78 -150 161 -255 173 -284
173 -422 0 -167 -39 -246 -212 -428 -56 -58 -101 -114 -101 -125 0 -28 16 -43
152 -141 69 -50 143 -110 163 -133 55 -63 103 -170 115 -256 14 -98 1 -172
-56 -325 -49 -130 -55 -161 -33 -182 8 -8 88 -32 178 -55 182 -45 253 -77 328
-144 110 -99 148 -193 167 -415 11 -128 17 -157 32 -168 23 -17 18 -17 181 8
177 27 278 27 363 0 138 -43 214 -114 330 -306 63 -104 85 -134 105 -137 19
-4 60 17 173 88 174 111 239 136 362 136 119 0 194 -27 360 -134 74 -47 142
-87 150 -88 41 -6 52 5 130 134 116 193 191 264 330 307 85 27 186 27 363 0
163 -25 158 -25 181 -8 15 11 21 40 32 168 19 222 57 315 168 416 70 64 146
97 332 144 87 22 165 47 173 54 22 21 16 52 -33 182 -57 153 -70 227 -56 325
12 86 60 193 115 256 20 23 94 83 163 133 136 98 152 113 152 141 0 11 -45 67
-101 125 -173 182 -212 261 -212 428 0 138 12 167 173 422 49 79 42 94 -78
150 -193 89 -219 103 -268 142 -53 42 -119 130 -147 196 -42 100 -46 182 -17
365 17 109 18 127 5 146 -16 24 -38 28 -254 40 -188 10 -281 44 -383 142 -75
71 -108 129 -153 272 -47 149 -60 177 -84 185 -14 4 -69 -12 -153 -43 -73 -27
-158 -57 -190 -66 -118 -34 -265 -12 -381 55 -29 17 -109 87 -178 155 -69 68
-132 124 -139 124 -7 0 -70 -56 -139 -124z m248 -129 c163 -158 281 -211 466
-209 103 1 172 18 346 85 l66 25 27 -88 c50 -162 112 -265 209 -348 115 -99
226 -138 426 -151 78 -4 144 -11 148 -14 3 -4 0 -40 -6 -81 -7 -40 -12 -114
-12 -164 0 -116 35 -226 104 -330 68 -101 147 -163 299 -236 l126 -61 -64
-105 c-91 -150 -108 -207 -109 -355 0 -198 50 -308 219 -482 36 -38 56 -66 51
-71 -6 -5 -54 -41 -108 -81 -112 -84 -182 -163 -226 -254 -74 -156 -79 -310
-16 -489 20 -57 39 -110 41 -119 5 -13 -9 -20 -68 -34 -126 -30 -231 -66 -285
-97 -113 -63 -218 -186 -263 -306 -24 -63 -50 -210 -50 -285 0 -48 0 -48 -27
-43 -66 14 -243 36 -294 36 -78 0 -197 -32 -281 -77 -97 -51 -188 -144 -264
-271 l-60 -101 -95 61 c-121 79 -199 115 -285 133 -181 38 -322 3 -533 -133
l-95 -61 -60 101 c-76 127 -167 220 -264 271 -84 45 -203 77 -281 77 -51 0
-228 -22 -293 -36 -28 -5 -28 -5 -28 43 0 75 -26 222 -50 285 -45 120 -150
243 -263 306 -54 31 -159 67 -285 97 -59 14 -73 21 -68 34 2 9 21 62 41 119
63 179 58 333 -16 489 -44 91 -114 170 -226 254 -54 40 -102 76 -108 81 -5 5
15 33 51 71 114 116 158 185 200 307 15 42 19 83 19 175 -1 148 -18 205 -109
355 l-64 105 126 61 c152 73 231 135 299 236 69 104 104 214 104 330 0 50 -5
124 -12 164 -6 41 -9 77 -6 81 4 3 70 10 148 14 200 13 311 52 426 151 97 83
159 186 209 348 l27 88 66 -25 c174 -67 243 -84 346 -85 185 -2 304 52 465
209 58 56 107 103 109 103 2 0 52 -46 110 -103z"/>
<path d="M2400 4494 c-207 -24 -373 -63 -533 -123 -530 -199 -948 -617 -1153
-1155 -136 -354 -162 -786 -69 -1156 125 -506 433 -929 879 -1210 342 -215
779 -323 1177 -291 397 32 750 168 1068 410 161 123 360 344 470 524 355 580
388 1295 89 1902 -98 198 -218 365 -378 525 -297 298 -662 484 -1090 556 -83
15 -390 26 -460 18z m425 -130 c405 -61 755 -237 1042 -522 286 -284 463 -630
529 -1034 21 -127 24 -406 5 -533 -36 -250 -125 -503 -249 -705 -292 -476
-764 -793 -1312 -881 -112 -18 -448 -18 -560 0 -548 88 -1020 405 -1312 881
-124 202 -213 455 -249 705 -19 127 -16 406 5 533 66 404 243 750 529 1034
416 414 1002 608 1572 522z"/>
</g>
</svg>
