<?xml version="1.0" standalone="no"?>
<!DOCTYPE svg PUBLIC "-//W3C//DTD SVG 20010904//EN"
 "http://www.w3.org/TR/2001/REC-SVG-20010904/DTD/svg10.dtd">
<svg version="1.0" xmlns="http://www.w3.org/2000/svg"
 width="512.000000pt" height="512.000000pt" viewBox="0 0 512.000000 512.000000"
 preserveAspectRatio="xMidYMid meet">

<g transform="translate(0.000000,512.000000) scale(0.100000,-0.100000)"
fill="#000000" stroke="none">
<path d="M4304 4745 c-82 -18 -176 -67 -237 -123 -28 -26 -565 -617 -1194
-1314 -629 -698 -1145 -1268 -1147 -1268 -2 0 -160 135 -352 301 -192 166
-372 316 -399 335 -148 99 -379 114 -540 35 -83 -41 -133 -82 -228 -187 -159
-177 -202 -272 -202 -444 0 -170 53 -288 186 -417 35 -33 345 -318 688 -631
662 -606 681 -621 817 -657 172 -45 384 11 508 133 75 73 2786 3226 2829 3289
56 83 82 177 82 298 -1 194 -59 302 -252 470 -200 175 -354 225 -559 180z"/>
</g>
</svg>
