<?xml version="1.0" standalone="no"?>
<!DOCTYPE svg PUBLIC "-//W3C//DTD SVG 20010904//EN"
 "http://www.w3.org/TR/2001/REC-SVG-20010904/DTD/svg10.dtd">
<svg version="1.0" xmlns="http://www.w3.org/2000/svg"
 width="1536.000000pt" height="1024.000000pt" viewBox="0 0 1536.000000 1024.000000"
 preserveAspectRatio="xMidYMid meet">

<g transform="translate(0.000000,1024.000000) scale(0.100000,-0.100000)"
fill="#000000" stroke="none">
<path d="M7355 8599 c-182 -18 -383 -52 -515 -85 -587 -150 -1090 -430 -1508
-839 -268 -262 -446 -503 -610 -831 -195 -388 -292 -746 -323 -1194 -42 -607
151 -1309 504 -1835 425 -632 1017 -1080 1737 -1313 350 -113 624 -155 1010
-156 329 0 567 27 866 99 468 112 925 336 1309 641 143 114 364 330 478 469
366 445 604 1009 669 1585 18 163 15 554 -5 711 -43 324 -120 590 -263 903
l-64 140 40 113 c91 258 115 399 107 621 -5 154 -21 246 -48 279 -45 53 -427
-64 -647 -199 l-63 -38 -82 74 c-356 326 -779 569 -1251 722 -148 47 -352 92
-546 120 -135 19 -653 28 -795 13z m3346 -769 c13 -48 9 -195 -7 -251 -26 -87
-114 -197 -229 -287 -25 -19 -22 -19 23 5 29 15 86 58 126 95 l73 67 -9 -47
c-44 -207 -201 -343 -535 -462 -59 -22 -103 -39 -97 -39 24 -2 296 70 361 94
74 28 147 72 187 112 31 31 32 25 5 -57 -70 -215 -185 -350 -374 -441 -93 -45
-165 -64 -302 -83 -118 -16 -67 -19 110 -6 146 11 237 30 320 69 31 15 57 25
57 23 0 -13 -67 -133 -97 -174 -97 -133 -270 -231 -471 -269 -35 -6 -24 -7 43
-3 115 7 172 18 246 48 32 13 59 20 59 15 0 -5 -39 -49 -87 -97 -130 -130
-238 -179 -478 -217 -218 -35 -557 -116 -543 -131 3 -2 36 3 75 11 39 8 179
19 319 24 295 12 349 22 508 99 26 13 -69 -105 -148 -183 -156 -155 -311 -213
-576 -216 -100 -1 -103 -2 -50 -11 57 -10 338 -4 399 8 34 7 33 5 -34 -55
-117 -107 -203 -155 -345 -197 -56 -16 -98 -19 -307 -19 -133 1 -241 0 -240
-1 1 -1 65 -12 142 -25 104 -17 180 -24 297 -24 86 0 156 -1 155 -2 -15 -12
-153 -58 -231 -75 -84 -19 -130 -23 -278 -23 -97 0 -176 -1 -175 -2 1 -1 56
-11 122 -24 124 -23 357 -32 420 -16 28 7 29 6 11 -8 -10 -8 -53 -29 -95 -47
-75 -32 -79 -33 -221 -33 -132 1 -151 3 -215 27 -78 31 -97 30 -36 -1 61 -32
148 -63 226 -81 l70 -17 -81 -26 c-149 -48 -333 -54 -464 -17 -19 5 -35 8 -37
6 -8 -8 145 -69 224 -89 76 -19 84 -23 58 -28 -89 -19 -225 3 -346 57 -88 40
-88 41 -28 131 123 183 393 526 602 765 l98 113 -101 -105 c-245 -254 -473
-516 -669 -770 -58 -74 -108 -139 -112 -144 -8 -9 -58 42 -59 60 0 14 188 246
386 474 262 303 550 606 1159 1220 325 327 614 622 641 655 51 60 268 337 287
365 10 16 9 15 -169 -180 -68 -74 -196 -202 -286 -285 -384 -355 -461 -428
-804 -770 -490 -488 -867 -898 -1189 -1292 -32 -40 -62 -73 -66 -73 -4 0 -10
47 -14 104 -10 152 7 296 53 431 l27 80 6 -115 c3 -63 11 -126 17 -140 8 -20
9 -15 5 30 -3 30 0 96 6 147 11 88 54 260 70 276 4 4 5 -19 3 -52 -5 -71 12
-210 37 -288 l17 -58 -4 153 c-6 209 14 332 75 457 33 67 106 185 114 185 4 0
0 -26 -7 -57 -18 -76 -18 -213 1 -309 8 -42 17 -79 19 -81 3 -3 2 38 -1 89
-10 165 48 414 127 548 72 123 253 358 234 305 -35 -101 -57 -375 -36 -460 9
-35 10 -28 11 56 1 120 22 234 66 356 44 122 74 173 154 256 54 57 221 195
221 183 0 -2 -13 -32 -29 -67 -47 -106 -64 -196 -67 -374 -2 -138 -1 -147 6
-70 22 240 96 447 206 572 56 65 161 154 150 128 -62 -148 -93 -313 -77 -415
l9 -55 1 70 c2 125 61 287 149 411 63 88 195 191 331 258 40 20 75 36 77 36 2
0 -12 -22 -31 -49 -43 -60 -79 -140 -105 -234 -27 -96 -24 -108 5 -24 42 120
147 243 288 339 97 66 298 158 502 229 126 44 156 46 166 9z m-1958 -419 c140
-37 233 -105 256 -188 17 -60 14 -71 -31 -110 -167 -147 -371 -365 -555 -595
-416 -520 -633 -978 -633 -1337 l0 -86 -35 -19 c-20 -11 -53 -38 -74 -61 -33
-36 -39 -51 -49 -114 -20 -137 -120 -280 -360 -519 -159 -157 -174 -175 -170
-202 4 -27 1 -30 -56 -51 -448 -165 -672 -377 -613 -579 22 -74 71 -129 154
-173 119 -62 205 -81 383 -81 289 -2 425 45 1052 356 315 156 440 210 633 278
235 81 509 140 650 140 41 0 46 -3 89 -57 92 -115 186 -334 220 -511 21 -112
26 -152 17 -152 -4 0 -33 9 -64 19 -198 68 -612 93 -932 56 -343 -39 -549 -84
-1487 -321 -120 -30 -239 -59 -265 -64 -27 -5 -125 -27 -220 -50 -95 -22 -217
-47 -273 -55 -140 -21 -381 -19 -380 4 1 3 15 15 33 26 19 12 44 43 60 75 27
52 28 61 24 150 -4 75 -12 116 -41 199 -40 116 -119 272 -191 379 -26 40 -46
74 -44 76 10 9 403 139 542 180 137 40 296 80 417 105 l45 9 -40 1 c-120 3
-485 -53 -745 -113 -298 -70 -357 -111 -368 -255 -12 -180 117 -516 254 -659
35 -36 62 -68 60 -70 -13 -12 -87 38 -160 108 -163 157 -278 383 -333 656 -25
126 -25 428 0 577 20 117 71 325 83 335 4 4 4 -4 0 -18 -14 -52 -18 -229 -7
-316 16 -128 44 -231 90 -327 21 -45 42 -89 45 -97 6 -15 2 24 -15 135 -4 33
-13 148 -19 255 -15 264 -4 497 45 985 43 422 48 519 42 750 -9 323 -33 531
-87 761 -36 150 -71 240 -128 327 -50 76 -101 116 -160 124 -50 7 -85 -12
-142 -73 l-44 -47 61 -17 c110 -30 186 -98 249 -222 32 -64 80 -215 71 -224
-2 -2 -35 3 -73 13 -52 13 -114 17 -249 17 -171 1 -183 0 -247 -25 l-68 -26 6
26 c34 143 107 321 177 430 165 254 279 275 1002 181 250 -33 378 -41 645 -41
291 0 499 18 940 81 151 21 325 44 385 50 61 5 128 12 150 14 22 2 121 3 220
1 142 -3 196 -8 258 -24z m-887 -2537 c44 -21 180 -147 199 -185 18 -34 19
-71 3 -87 -26 -26 -66 -12 -150 51 -124 93 -168 138 -168 172 0 60 50 80 116
49z m1286 -203 c-3 -95 1 -194 8 -245 l12 -86 142 0 c212 0 362 -36 479 -115
49 -33 127 -100 127 -110 0 -2 -29 10 -64 26 -227 106 -626 100 -1071 -16
-244 -64 -438 -144 -825 -343 -524 -269 -637 -318 -818 -353 -79 -15 -91 -6
-20 15 90 26 249 94 333 143 44 25 161 99 261 163 529 345 829 481 1234 561
l95 19 -170 -5 c-138 -3 -197 -10 -314 -34 -80 -17 -146 -29 -148 -27 -2 2 35
13 82 26 52 14 85 28 85 36 0 7 8 18 18 23 9 6 13 11 9 11 -4 0 1 10 13 23 11
12 32 37 47 55 14 19 44 45 66 59 27 17 36 28 29 35 -10 10 -99 -49 -234 -153
-16 -11 -28 -19 -28 -16 0 6 176 140 242 185 51 35 76 43 39 12 -13 -11 -19
-20 -14 -20 13 0 42 32 40 44 -2 7 327 242 343 245 3 1 4 -71 2 -158z m-1374
12 c42 -29 142 -120 142 -129 0 -4 -36 -65 -79 -138 -85 -141 -244 -444 -255
-486 l-6 -25 -32 36 c-45 50 -127 112 -218 165 -128 73 -128 64 -4 185 58 57
151 156 207 219 137 156 179 200 193 200 6 0 29 -12 52 -27z m-496 -624 c83
-42 148 -128 148 -194 0 -85 -51 -131 -230 -205 -153 -64 -254 -115 -345 -173
-38 -25 -71 -44 -73 -43 -1 2 22 50 52 107 30 57 73 153 96 213 54 144 73 180
127 237 82 87 138 102 225 58z"/>
<path d="M7323 6303 c9 -2 23 -2 30 0 6 3 -1 5 -18 5 -16 0 -22 -2 -12 -5z"/>
<path d="M7560 6300 c107 -5 233 -4 280 0 58 5 -3 7 -195 7 l-280 0 195 -7z"/>
<path d="M7068 6293 c34 -2 88 -2 120 0 31 2 3 3 -63 3 -66 0 -92 -1 -57 -3z"/>
<path d="M6878 6283 c23 -2 59 -2 80 0 20 2 1 4 -43 4 -44 0 -61 -2 -37 -4z"/>
<path d="M7558 6283 c17 -2 47 -2 65 0 17 2 3 4 -33 4 -36 0 -50 -2 -32 -4z"/>
<path d="M6697 6273 c18 -2 50 -2 70 0 21 2 7 4 -32 4 -38 0 -55 -2 -38 -4z"/>
<path d="M7368 6273 c23 -2 59 -2 80 0 20 2 1 4 -43 4 -44 0 -61 -2 -37 -4z"/>
<path d="M6543 6263 c20 -2 54 -2 75 0 20 2 3 4 -38 4 -41 0 -58 -2 -37 -4z"/>
<path d="M7153 6263 c32 -2 81 -2 110 0 29 2 3 3 -58 3 -60 0 -84 -1 -52 -3z"/>
<path d="M6280 6245 l-95 -12 175 0 c130 1 153 2 90 7 l-85 6 60 5 60 5 -55 1
c-30 0 -98 -5 -150 -12z"/>
<path d="M6898 6253 c34 -2 90 -2 125 0 34 2 6 3 -63 3 -69 0 -97 -1 -62 -3z"/>
<path d="M6693 6243 c26 -2 68 -2 95 0 26 2 4 3 -48 3 -52 0 -74 -1 -47 -3z"/>
<path d="M6148 6223 c6 -2 18 -2 25 0 6 3 1 5 -13 5 -14 0 -19 -2 -12 -5z"/>
<path d="M7350 5790 c83 -4 106 -7 70 -10 -42 -2 -47 -4 -20 -7 19 -2 107 3
195 11 l160 13 -265 0 c-198 -1 -233 -3 -140 -7z"/>
<path d="M7033 5783 c32 -2 81 -2 110 0 29 2 3 3 -58 3 -60 0 -84 -1 -52 -3z"/>
<path d="M6803 5773 c32 -2 81 -2 110 0 29 2 3 3 -58 3 -60 0 -84 -1 -52 -3z"/>
<path d="M7270 5770 l-75 -6 70 -2 c39 -1 77 3 85 8 8 5 11 9 5 8 -5 -1 -44
-4 -85 -8z"/>
<path d="M6550 5760 c-30 -4 -1 -5 65 -2 66 2 122 6 124 8 7 6 -127 1 -189 -6z"/>
<path d="M6945 5750 l-80 -6 70 -1 c39 0 113 3 165 7 l95 7 -85 0 c-47 -1
-121 -4 -165 -7z"/>
<path d="M6345 5740 l-40 -7 35 -1 c19 -1 42 3 50 8 16 11 14 11 -45 0z"/>
<path d="M6428 5743 c12 -2 30 -2 40 0 9 3 -1 5 -23 4 -22 0 -30 -2 -17 -4z"/>
<path d="M6738 5733 c23 -2 61 -2 85 0 23 2 4 4 -43 4 -47 0 -66 -2 -42 -4z"/>
<path d="M6258 5723 c6 -2 18 -2 25 0 6 3 1 5 -13 5 -14 0 -19 -2 -12 -5z"/>
<path d="M6563 5723 c26 -2 67 -2 90 0 23 2 2 3 -48 3 -49 0 -68 -1 -42 -3z"/>
<path d="M6175 5710 c-15 -7 -10 -9 23 -9 23 -1 42 4 42 9 0 12 -37 12 -65 0z"/>
<path d="M6368 5713 c23 -2 59 -2 80 0 20 2 1 4 -43 4 -44 0 -61 -2 -37 -4z"/>
<path d="M6895 5271 c-60 -4 71 -6 292 -5 222 0 406 3 409 7 8 8 -534 6 -701
-2z"/>
<path d="M6580 5250 c-61 -6 -62 -7 -15 -7 28 -1 88 2 135 6 l85 8 -70 0 c-38
0 -99 -3 -135 -7z"/>
<path d="M7183 5253 c26 -2 67 -2 90 0 23 2 2 3 -48 3 -49 0 -68 -1 -42 -3z"/>
<path d="M7003 5243 c26 -2 67 -2 90 0 23 2 2 3 -48 3 -49 0 -68 -1 -42 -3z"/>
<path d="M6325 5230 c-28 -4 1 -5 65 -2 63 2 117 6 119 8 7 6 -130 1 -184 -6z"/>
<path d="M6823 5233 c26 -2 67 -2 90 0 23 2 2 3 -48 3 -49 0 -68 -1 -42 -3z"/>
<path d="M6648 5223 c23 -2 61 -2 85 0 23 2 4 4 -43 4 -47 0 -66 -2 -42 -4z"/>
<path d="M6145 5204 c-67 -12 -68 -13 -15 -9 30 3 97 5 149 5 52 0 92 2 90 4
-13 11 -164 12 -224 0z"/>
<path d="M6447 5213 c18 -2 50 -2 70 0 21 2 7 4 -32 4 -38 0 -55 -2 -38 -4z"/>
<path d="M6568 5213 c6 -2 18 -2 25 0 6 3 1 5 -13 5 -14 0 -19 -2 -12 -5z"/>
<path d="M7604 4552 c3 -5 0 -13 -6 -15 -9 -4 -10 -6 -1 -6 17 -1 25 16 12 25
-7 4 -9 3 -5 -4z"/>
<path d="M7809 4493 c-13 -16 -12 -17 4 -4 16 13 21 21 13 21 -2 0 -10 -8 -17
-17z"/>
<path d="M7517 4454 c-13 -18 -14 -22 -3 -18 8 3 17 13 20 21 10 25 3 23 -17
-3z"/>
<path d="M7755 4418 c-21 -29 -38 -58 -38 -64 0 -7 -3 -12 -7 -11 -8 2 -36
-32 -124 -151 -66 -90 -68 -93 -51 -112 24 -26 30 -25 55 10 12 17 17 30 11
30 -5 0 -13 -9 -16 -20 -6 -20 -39 -27 -50 -11 -4 8 131 199 167 236 6 6 -13
-36 -41 -92 -28 -57 -49 -103 -47 -103 2 0 25 38 50 85 25 47 67 123 92 170
25 47 44 85 42 85 -2 0 -21 -23 -43 -52z"/>
<path d="M7464 4388 l-19 -23 23 19 c12 11 22 21 22 23 0 8 -8 2 -26 -19z"/>
<path d="M7261 3993 c-10 -26 -10 -27 4 -9 8 11 15 23 15 28 0 15 -7 8 -19
-19z"/>
<path d="M7330 3970 c0 -13 5 -18 14 -14 8 3 12 12 9 20 -8 21 -23 17 -23 -6z"/>
<path d="M7202 3934 c-13 -9 -49 -55 -81 -103 -56 -82 -58 -88 -34 -83 14 3
28 13 30 23 3 10 11 15 18 13 16 -6 86 73 101 114 16 41 -2 59 -34 36z"/>
</g>
</svg>
