<?xml version="1.0" standalone="no"?>
<!DOCTYPE svg PUBLIC "-//W3C//DTD SVG 20010904//EN"
 "http://www.w3.org/TR/2001/REC-SVG-20010904/DTD/svg10.dtd">
<svg version="1.0" xmlns="http://www.w3.org/2000/svg"
 width="1536.000000pt" height="1024.000000pt" viewBox="0 0 1536.000000 1024.000000"
 preserveAspectRatio="xMidYMid meet">

<g transform="translate(0.000000,1024.000000) scale(0.100000,-0.100000)"
fill="#000000" stroke="none">
<path d="M11249 8365 c-183 -29 -520 -160 -738 -288 -58 -34 -152 -83 -209
-109 -212 -96 -512 -294 -729 -481 -63 -54 -116 -97 -118 -95 -2 2 -16 27 -32
56 -165 300 -402 412 -874 412 -197 0 -350 -13 -694 -61 -655 -90 -895 -110
-1330 -110 -277 0 -597 20 -825 51 -327 44 -507 49 -635 15 -273 -71 -459
-308 -550 -700 -14 -60 -30 -128 -35 -150 -5 -22 -5 -44 -1 -48 5 -5 35 -3 67
5 91 20 455 17 564 -5 109 -23 236 -66 255 -87 44 -48 85 -429 85 -780 0 -316
-8 -440 -59 -965 -22 -220 -42 -434 -46 -475 -10 -127 -7 -499 5 -615 57 -534
303 -990 622 -1151 27 -13 48 -30 48 -37 0 -7 -13 -26 -30 -42 -38 -37 -38
-46 2 -34 42 12 104 72 136 134 39 75 42 215 8 347 -52 202 -170 427 -271 516
l-45 40 42 10 c78 20 569 172 783 242 116 38 235 76 265 84 37 9 46 14 28 15
-58 2 -486 -75 -683 -123 -207 -50 -454 -114 -506 -132 -46 -15 -47 -16 -59
-75 -25 -118 3 -282 83 -479 56 -136 102 -206 201 -305 75 -73 78 -77 38 -55
-160 90 -309 277 -402 503 -144 353 -179 801 -115 1482 51 545 59 688 59 1080
0 344 -3 410 -22 560 -58 445 -128 705 -238 882 -68 109 -140 163 -244 183
-56 11 -91 2 -128 -33 -21 -19 -55 -77 -50 -83 2 -1 46 -22 98 -47 161 -76
216 -125 270 -242 28 -62 93 -255 88 -261 -2 -2 -58 6 -123 17 -168 29 -423
36 -540 16 -49 -9 -91 -15 -93 -13 -6 7 41 174 74 259 96 250 209 393 369 468
119 56 274 61 595 19 469 -60 823 -79 1195 -62 269 12 541 38 775 73 556 82
749 101 1010 102 293 0 431 -35 567 -143 64 -51 156 -178 189 -258 l17 -43
-39 -31 c-73 -58 -389 -383 -493 -507 -332 -398 -606 -829 -728 -1144 -62
-160 -86 -285 -87 -438 l-1 -136 -42 -17 c-86 -36 -136 -127 -137 -252 -1 -80
-2 -81 -46 -140 -87 -115 -248 -265 -348 -324 -141 -83 -147 -89 -147 -147 0
-49 0 -50 -95 -142 l-95 -92 -110 -35 c-132 -43 -311 -128 -380 -181 -149
-115 -161 -258 -31 -389 139 -139 368 -195 681 -165 294 28 567 115 1051 337
465 212 847 339 1172 390 l112 18 41 -40 c105 -101 194 -279 253 -504 20 -75
47 -211 42 -210 -1 0 -30 9 -65 20 -180 57 -433 79 -691 61 -395 -28 -821
-113 -1650 -331 -1059 -278 -1365 -342 -1507 -312 -74 15 -79 8 -9 -12 188
-55 402 -49 786 20 189 34 339 70 896 215 682 177 945 235 1289 286 175 25
214 27 495 27 255 1 321 -2 405 -18 55 -10 113 -21 128 -24 l29 -5 -7 49 c-13
96 -57 281 -91 384 -32 97 -129 309 -170 372 -10 15 -15 30 -11 34 4 4 69 10
145 12 112 4 158 0 248 -17 61 -11 115 -21 120 -21 18 1 -183 82 -251 101
-291 82 -664 59 -1080 -67 -189 -57 -433 -155 -740 -296 -483 -222 -789 -330
-975 -343 l-65 -5 63 15 c232 54 482 167 825 373 446 268 770 408 1082 467 71
13 144 26 160 28 17 2 -43 5 -133 6 -190 1 -327 -16 -512 -65 -68 -18 -126
-31 -128 -29 -2 2 38 17 89 34 106 33 92 42 -19 11 -77 -21 -108 -25 -82 -11
8 5 76 30 150 55 74 26 136 49 139 52 2 2 -11 2 -30 -1 -24 -3 -18 1 21 14 78
27 39 25 -93 -4 -167 -37 -168 -37 -87 -10 41 14 83 25 93 25 10 0 16 4 13 9
-4 5 4 7 16 3 17 -4 20 -2 15 11 -4 12 -1 17 11 18 9 0 12 3 6 5 -6 3 -49 -9
-94 -26 -128 -46 -106 -28 29 25 95 37 130 56 165 91 25 24 51 44 58 44 6 0 9
2 7 5 -3 2 -61 -15 -129 -40 -69 -24 -126 -43 -127 -41 -4 4 179 77 291 117
153 53 438 197 507 256 15 12 17 -3 22 -164 3 -98 11 -224 18 -280 l12 -103
54 0 c30 0 52 3 50 8 -3 4 -10 88 -17 187 -9 132 -9 213 -1 305 l10 125 38 34
c129 114 141 127 147 167 6 34 16 46 69 86 206 152 535 498 671 703 62 93 136
230 136 251 0 8 26 43 58 77 73 78 115 140 154 225 18 37 53 98 79 135 68 98
139 274 139 348 0 14 14 46 32 70 77 106 158 327 174 473 4 39 19 86 42 131
70 141 101 261 109 436 6 129 -8 255 -38 333 -27 73 -30 74 -180 51z m125
-116 c21 -106 -4 -253 -61 -362 -41 -78 -159 -209 -250 -278 -83 -62 -86 -66
-18 -29 95 52 175 113 238 178 31 33 57 57 57 52 0 -5 -11 -44 -25 -88 -77
-243 -298 -417 -659 -517 -67 -19 -119 -34 -116 -34 19 -2 286 40 336 53 88
23 190 62 262 101 37 21 62 30 62 22 -1 -30 -61 -161 -104 -226 -122 -184
-337 -308 -650 -376 -58 -12 -17 -14 98 -4 152 13 292 49 389 99 74 39 78 40
72 18 -11 -39 -97 -185 -143 -243 -111 -143 -319 -248 -555 -280 -27 -4 -46
-9 -43 -12 2 -3 60 0 128 7 143 14 273 49 341 90 26 16 47 25 47 20 0 -17
-112 -130 -178 -178 -126 -93 -272 -160 -467 -217 -183 -53 -450 -94 -625 -96
l-95 -2 75 -13 c41 -8 156 -17 255 -20 303 -11 513 25 749 130 32 14 60 26 63
26 11 0 -99 -131 -157 -188 -188 -184 -482 -302 -752 -302 -53 0 -99 -4 -102
-9 -6 -9 137 -21 265 -21 110 0 220 21 344 65 31 11 -39 -49 -119 -102 -141
-94 -300 -154 -491 -188 -147 -26 -483 -20 -600 11 -15 4 -17 3 -5 -4 23 -15
195 -59 295 -76 121 -21 298 -20 408 2 48 10 87 17 87 15 0 -9 -151 -74 -203
-87 -165 -43 -371 -41 -551 5 -43 11 -83 18 -88 17 -12 -4 254 -82 330 -98 67
-13 283 -13 341 1 24 5 46 7 49 4 10 -10 -144 -73 -222 -90 -112 -25 -306 -17
-436 18 -144 39 -150 40 -83 8 130 -62 240 -92 357 -98 l109 -6 -54 -28 c-30
-15 -88 -39 -129 -53 -186 -62 -321 -62 -595 -1 -46 10 115 -62 182 -81 32 -9
96 -23 143 -30 l85 -13 -150 3 c-119 3 -162 8 -205 24 -65 23 -136 58 -144 70
-3 5 29 64 70 132 155 254 398 583 608 823 67 76 123 144 125 150 2 7 -3 5
-12 -3 -39 -39 -337 -382 -452 -520 -71 -85 -174 -209 -230 -275 -96 -114
-241 -303 -263 -341 -9 -16 -14 -15 -53 16 -24 19 -46 35 -48 37 -16 12 543
653 910 1043 283 301 538 561 979 1000 380 378 585 594 731 770 49 59 189 245
203 270 5 8 -63 -59 -150 -149 -87 -90 -307 -304 -489 -474 -658 -618 -1401
-1387 -1836 -1897 -146 -171 -274 -331 -319 -398 -19 -28 -37 -52 -41 -52 -10
0 -38 94 -50 165 -18 117 7 286 60 405 l20 45 0 -55 c1 -58 32 -184 56 -229
19 -34 18 -18 -1 44 -24 81 -21 254 7 340 l23 70 7 -80 c6 -77 32 -162 65
-215 10 -16 13 -18 8 -5 -34 96 -43 243 -20 355 11 58 84 236 92 227 2 -2 -2
-42 -8 -90 -9 -67 -9 -108 0 -179 11 -85 68 -285 78 -275 3 2 -2 33 -10 68
-47 210 -15 512 71 682 30 60 104 179 108 175 2 -2 -4 -34 -12 -73 -21 -100
-13 -311 17 -433 13 -50 25 -91 27 -89 1 2 -2 51 -9 110 -28 257 44 574 173
764 59 86 258 319 259 302 0 -4 -9 -27 -20 -53 -32 -70 -50 -186 -49 -304 2
-121 16 -209 18 -109 2 95 30 257 59 342 48 138 101 217 239 353 68 67 128
122 134 122 5 0 -1 -21 -14 -47 -31 -61 -63 -159 -82 -250 -20 -97 -29 -278
-17 -328 l10 -40 1 56 c3 184 96 490 191 633 39 58 194 216 213 216 2 0 -11
-30 -28 -67 -44 -92 -62 -168 -75 -298 -18 -190 -10 -269 10 -106 37 292 163
523 366 667 65 46 208 129 202 116 -80 -156 -110 -248 -122 -372 l-7 -65 30
87 c71 215 202 366 436 503 207 122 500 222 656 224 55 1 57 0 63 -30z m-3285
-3364 c119 -56 281 -221 281 -288 0 -20 -56 -69 -74 -65 -33 7 -282 210 -319
261 l-21 27 22 45 c25 53 36 55 111 20z m-59 -247 c45 -33 101 -83 125 -110
51 -57 52 -54 -25 -153 -108 -137 -213 -316 -291 -494 l-15 -33 -36 54 c-56
85 -141 171 -200 202 -29 16 -67 39 -85 53 -29 21 -31 26 -22 52 6 18 46 56
110 106 129 101 292 275 338 363 6 12 14 22 16 22 3 0 41 -28 85 -62z m600
-268 c-12 -8 -12 -10 5 -11 11 0 -7 -10 -39 -20 -33 -11 -61 -17 -64 -15 -2 3
17 11 44 17 27 7 42 15 35 17 -11 4 -11 6 0 13 8 5 19 9 24 9 6 0 3 -5 -5 -10z
m103 3 c-7 -2 -19 -2 -25 0 -7 3 -2 5 12 5 14 0 19 -2 13 -5z m-1225 -287 c61
-32 131 -126 169 -226 44 -113 51 -101 -99 -176 -160 -80 -313 -164 -467 -255
-63 -38 -117 -67 -119 -64 -6 6 132 345 193 470 65 134 115 194 198 234 70 35
87 37 125 17z"/>
<path d="M9975 6678 l-80 -83 83 80 c45 44 82 81 82 82 0 8 -11 -3 -85 -79z"/>
<path d="M9869 6573 c-13 -16 -12 -17 4 -4 9 7 17 15 17 17 0 8 -8 3 -21 -13z"/>
<path d="M9639 6343 l-24 -28 28 24 c15 14 27 26 27 28 0 8 -8 1 -31 -24z"/>
<path d="M9500 6197 c-58 -61 -89 -97 -70 -81 51 44 195 194 184 193 -5 -1
-56 -52 -114 -112z"/>
<path d="M9304 5988 l-29 -33 33 29 c30 28 37 36 29 36 -2 0 -16 -15 -33 -32z"/>
<path d="M7474 3920 c-35 -14 -99 -85 -223 -250 -64 -85 -123 -163 -131 -175
-7 -11 28 18 78 65 51 47 136 122 189 166 95 81 153 145 153 170 0 8 -9 18
-19 24 -22 11 -19 11 -47 0z"/>
<path d="M7558 6453 c18 -2 45 -2 60 0 15 2 0 4 -33 4 -33 0 -45 -2 -27 -4z"/>
<path d="M7778 6453 c12 -2 30 -2 40 0 9 3 -1 5 -23 4 -22 0 -30 -2 -17 -4z"/>
<path d="M8008 6453 c18 -2 45 -2 60 0 15 2 0 4 -33 4 -33 0 -45 -2 -27 -4z"/>
<path d="M7158 6443 c17 -2 47 -2 65 0 17 2 3 4 -33 4 -36 0 -50 -2 -32 -4z"/>
<path d="M8143 6443 c15 -2 37 -2 50 0 12 2 0 4 -28 4 -27 0 -38 -2 -22 -4z"/>
<path d="M7683 6413 c9 -2 25 -2 35 0 9 3 1 5 -18 5 -19 0 -27 -2 -17 -5z"/>
<path d="M6338 6403 c7 -3 16 -2 19 1 4 3 -2 6 -13 5 -11 0 -14 -3 -6 -6z"/>
<path d="M7438 6403 c7 -3 16 -2 19 1 4 3 -2 6 -13 5 -11 0 -14 -3 -6 -6z"/>
<path d="M7138 6393 c12 -2 30 -2 40 0 9 3 -1 5 -23 4 -22 0 -30 -2 -17 -4z"/>
<path d="M6103 6383 c9 -2 23 -2 30 0 6 3 -1 5 -18 5 -16 0 -22 -2 -12 -5z"/>
<path d="M7633 5863 c15 -2 37 -2 50 0 12 2 0 4 -28 4 -27 0 -38 -2 -22 -4z"/>
<path d="M7153 5853 c15 -2 39 -2 55 0 15 2 2 4 -28 4 -30 0 -43 -2 -27 -4z"/>
<path d="M6938 5843 c12 -2 32 -2 45 0 12 2 2 4 -23 4 -25 0 -35 -2 -22 -4z"/>
<path d="M6743 5833 c9 -2 25 -2 35 0 9 3 1 5 -18 5 -19 0 -27 -2 -17 -5z"/>
<path d="M6593 5823 c9 -2 23 -2 30 0 6 3 -1 5 -18 5 -16 0 -22 -2 -12 -5z"/>
<path d="M6458 5813 c7 -3 16 -2 19 1 4 3 -2 6 -13 5 -11 0 -14 -3 -6 -6z"/>
<path d="M7313 5813 c9 -2 25 -2 35 0 9 3 1 5 -18 5 -19 0 -27 -2 -17 -5z"/>
<path d="M6303 5803 c15 -2 37 -2 50 0 12 2 0 4 -28 4 -27 0 -38 -2 -22 -4z"/>
<path d="M6208 5793 c6 -2 18 -2 25 0 6 3 1 5 -13 5 -14 0 -19 -2 -12 -5z"/>
<path d="M6988 5793 c7 -3 16 -2 19 1 4 3 -2 6 -13 5 -11 0 -14 -3 -6 -6z"/>
<path d="M6728 5783 c12 -2 32 -2 45 0 12 2 2 4 -23 4 -25 0 -35 -2 -22 -4z"/>
<path d="M6818 5783 c7 -3 16 -2 19 1 4 3 -2 6 -13 5 -11 0 -14 -3 -6 -6z"/>
<path d="M6045 5770 c-19 -8 -19 -9 2 -9 12 -1 25 4 28 9 7 12 -2 12 -30 0z"/>
<path d="M6363 5773 c9 -2 23 -2 30 0 6 3 -1 5 -18 5 -16 0 -22 -2 -12 -5z"/>
<path d="M6448 5773 c6 -2 18 -2 25 0 6 3 1 5 -13 5 -14 0 -19 -2 -12 -5z"/>
<path d="M6518 5773 c18 -2 45 -2 60 0 15 2 0 4 -33 4 -33 0 -45 -2 -27 -4z"/>
<path d="M7363 5293 c15 -2 39 -2 55 0 15 2 2 4 -28 4 -30 0 -43 -2 -27 -4z"/>
<path d="M7108 5283 c18 -2 45 -2 60 0 15 2 0 4 -33 4 -33 0 -45 -2 -27 -4z"/>
<path d="M7803 5283 c9 -2 23 -2 30 0 6 3 -1 5 -18 5 -16 0 -22 -2 -12 -5z"/>
<path d="M6983 5273 c9 -2 23 -2 30 0 6 3 -1 5 -18 5 -16 0 -22 -2 -12 -5z"/>
<path d="M7688 5273 c6 -2 18 -2 25 0 6 3 1 5 -13 5 -14 0 -19 -2 -12 -5z"/>
<path d="M6783 5263 c15 -2 37 -2 50 0 12 2 0 4 -28 4 -27 0 -38 -2 -22 -4z"/>
<path d="M6643 5253 c15 -2 37 -2 50 0 12 2 0 4 -28 4 -27 0 -38 -2 -22 -4z"/>
<path d="M7458 5253 c7 -3 16 -2 19 1 4 3 -2 6 -13 5 -11 0 -14 -3 -6 -6z"/>
<path d="M6518 5243 c6 -2 18 -2 25 0 6 3 1 5 -13 5 -14 0 -19 -2 -12 -5z"/>
<path d="M7278 5243 c12 -2 32 -2 45 0 12 2 2 4 -23 4 -25 0 -35 -2 -22 -4z"/>
<path d="M6373 5233 c9 -2 25 -2 35 0 9 3 1 5 -18 5 -19 0 -27 -2 -17 -5z"/>
<path d="M7113 5233 c15 -2 37 -2 50 0 12 2 0 4 -28 4 -27 0 -38 -2 -22 -4z"/>
<path d="M6923 5223 c15 -2 39 -2 55 0 15 2 2 4 -28 4 -30 0 -43 -2 -27 -4z"/>
<path d="M6128 5213 c6 -2 18 -2 25 0 6 3 1 5 -13 5 -14 0 -19 -2 -12 -5z"/>
<path d="M6693 5213 c15 -2 39 -2 55 0 15 2 2 4 -28 4 -30 0 -43 -2 -27 -4z"/>
<path d="M6048 5203 c12 -2 32 -2 45 0 12 2 2 4 -23 4 -25 0 -35 -2 -22 -4z"/>
<path d="M6238 5203 c6 -2 18 -2 25 0 6 3 1 5 -13 5 -14 0 -19 -2 -12 -5z"/>
<path d="M6323 5203 c9 -2 25 -2 35 0 9 3 1 5 -18 5 -19 0 -27 -2 -17 -5z"/>
<path d="M6443 5203 c9 -2 23 -2 30 0 6 3 -1 5 -18 5 -16 0 -22 -2 -12 -5z"/>
</g>
</svg>
