<?xml version="1.0" standalone="no"?>
<!DOCTYPE svg PUBLIC "-//W3C//DTD SVG 20010904//EN"
 "http://www.w3.org/TR/2001/REC-SVG-20010904/DTD/svg10.dtd">
<svg version="1.0" xmlns="http://www.w3.org/2000/svg"
 width="512.000000pt" height="512.000000pt" viewBox="0 0 512.000000 512.000000"
 preserveAspectRatio="xMidYMid meet">

<g transform="translate(0.000000,512.000000) scale(0.100000,-0.100000)"
fill="#000000" stroke="none">
<path d="M2125 5089 c-1545 -271 -2484 -1832 -1995 -3320 276 -840 961 -1476
1816 -1688 470 -116 983 -96 1444 59 608 203 1131 648 1434 1220 134 255 231
555 270 842 23 167 30 298 17 346 -13 48 -60 106 -104 129 -40 20 -126 19
-168 -3 -19 -9 -90 -74 -159 -143 -318 -322 -694 -481 -1138 -481 -430 0 -825
169 -1127 481 -306 316 -458 713 -442 1149 16 405 155 735 439 1037 84 90 102
118 112 175 14 75 -41 175 -110 204 -45 19 -157 16 -289 -7z m-323 -541 c-118
-212 -200 -500 -222 -783 -32 -406 72 -824 290 -1177 155 -249 389 -483 639
-638 572 -355 1273 -396 1880 -109 68 32 152 77 187 99 35 22 66 40 68 40 13
0 -81 -248 -138 -365 -289 -600 -831 -1026 -1481 -1165 -167 -36 -267 -45
-480 -44 -173 0 -233 4 -340 23 -452 80 -849 285 -1168 604 -322 322 -523 702
-608 1152 -27 139 -37 477 -20 622 83 695 458 1272 1059 1631 89 53 322 160
350 162 10 0 4 -17 -16 -52z"/>
</g>
</svg>
